<svg viewBox="0 0 72 72" xmlns="http://www.w3.org/2000/svg"><path d="m55 50c-1.5318-2.2976-6-6-11-6-1 0-1.6479.1075-2.4739.2521l-10.8378.7479c-1.4621 0-2.8392 0-3.6883 0-4.1231 0-7.5181 3.0361-9 6 0 0-.953 1.6965-.7547 2.2304.1009.2717.7547.1863.7547.1863h37.8333s1.75.5.9167-1-1.75-2.4167-1.75-2.4167z" style="fill:#f1b31c;stroke:#f1b31c;stroke-linecap:round;stroke-linejoin:round;stroke-miterlimit:10;stroke-width:1.8"/><path d="m66 55c-2-3-5.2153-4.2184-7-4-3.4536.4226-5.6051 3.6469-8.5 3-3.0688-.6857-3.5667-3.3277-6-3-3.0049.4046-4.3383 4.0176-8 4-.3861-.0019-1.3036-.0068-2.3333-.4544-2.6102-1.1346-3.056-3.9705-6.6667-3.5456-4.0531.477-5.909 4.5912-9 4-2.6975-.5159-3.112-3.5376-6-4-2.6618-.4262-5.2581 1.9705-7 4z" style="fill:#92d3f5;stroke:#92d3f5;stroke-linecap:round;stroke-linejoin:round;stroke-miterlimit:10;stroke-width:1.8"/><path d="m44 11c-.6902-.3647-2.1404-1.036-4-1-.7209.0139-4.1718.1831-6 3-1.0579 1.63-1.0448 3.3162-1 4 0 0 2.7047-3.8756 5.8958-4.4583 2.1818-.3984 3.4561-.4574 4.3171-.6458.8957-.196 1.0507-.7566.7871-.8959z" style="fill:#5c9e31;stroke:#5c9e31;stroke-linecap:round;stroke-linejoin:round;stroke-miterlimit:10;stroke-width:1.8"/><path d="m32.1196 20.097c-1.2964-.8621-3.4264-2.0067-6.256-2.4212-1.2909-.1891-5.6496-.6543-9.8613 1.9381-1.2756.7852-2.1981 1.6419-2.7981 2.2738 0 0 6.9849 2.029 18.9154-1.7907" style="fill:#5c9e31;stroke:#5c9e31;stroke-linecap:round;stroke-linejoin:round;stroke-miterlimit:10;stroke-width:1.8"/><path d="m57 17c-1.0036-.7717-1.7235-1.2799-3.0353-1.9725-1.1237-.5933-3.5708-1.8975-6.9647-2.0275-1.5682-.0601-4.8729-.1943-8 2-2.4655 1.73-3.574 3.9823-4 5 0 0 4.7083-1.4583 6.125-1.6667 1.4167-.2083 4.0791-.605 5.6247-.605 1.5709 0 3.7086-.02 5.542.1884 1.8333.2083 3.4132.4239 4.2377.7421.6706.2588.9765.3843 1.0628-.4235.0248-.2324-.0399-.8106-.5922-1.2353z" style="fill:#b1cc33;stroke:#b1cc33;stroke-linecap:round;stroke-linejoin:round;stroke-miterlimit:10;stroke-width:1.8"/><path d="m50 30c-.2987-1.0506-1.0579-3.1512-3-5-.6188-.5891-3.124-2.8339-7-3-2.2968-.0984-4.0812.5756-5 1 0 0 .8466 1.0302 2.4858 1.9526s5.0975 3.1633 7.2225 3.9387 3.7917.9004 5.2917 1.1087" style="fill:#b1cc33;stroke:#b1cc33;stroke-linecap:round;stroke-linejoin:round;stroke-miterlimit:10;stroke-width:1.8"/><path d="m31 23c-.6941-.2235-1.7119-.7514-3-1-3.5551-.6861-8.9903-.0524-12 4-1.9682 2.6501-2.0579 5.6294-2 7 0 0 2.5474-1.9157 6.8333-4.5553 4.0392-2.4876 5.7563-2.6764 9.7817-3.314 1.447-.2291 1.0404-1.9196.385-2.1307z" style="fill:#b1cc33;stroke:#b1cc33;stroke-linecap:round;stroke-linejoin:round;stroke-miterlimit:10;stroke-width:1.8"/><path d="m36.2569 31.4845-2.5758.6902-1.938-4.6571 3.8637-1.0352z" fill="#a57939"/><path d="m37.4858 36.0687-3.2827.5789-1.6889-4.7794 4.924-.8682z" fill="#a57939"/><path d="m38.4282 41.0681-3.9848.3487-1.432-4.8939 5.9772-.5229z" fill="#a57939"/><path d="m37.9945 46.157h-4l-1-5h6z" fill="#a57939"/><g stroke-linecap="round" stroke-linejoin="round" stroke-miterlimit="10"><path d="m36.2569 31.4845-2.5758.6902-1.938-4.6571 3.8637-1.0352z" fill="none" stroke="#000" stroke-width="2"/><path d="m37.4858 36.0687-3.2827.5789-1.6889-4.7794 4.924-.8682z" fill="none" stroke="#000" stroke-width="2"/><path d="m5.5 55c1.7419-2.0295 4.3382-4.4262 7-4 2.888.4624 3.3025 3.4841 6 4 3.091.5912 4.9469-3.523 9-4 3.6107-.4249 4.0565 2.411 6.6667 3.5456 1.0297.4476 1.9472.4525 2.3333.4544 3.6617.0176 4.9951-3.5954 8-4 2.4333-.3277 2.9312 2.3143 6 3 2.8949.6469 5.0464-2.5774 8.5-3 1.7847-.2184 5 1 7 4" fill="none" stroke="#000" stroke-width="2"/><path d="m41.5261 44.2521c.826-.1446 1.4739-.2521 2.4739-.2521 5 0 9.4682 3.7024 11 6" fill="none" stroke="#000" stroke-width="2"/><path d="m18 51c1.4819-2.9639 4.8769-6 9-6h3.6883" fill="none" stroke="#000" stroke-width="2"/><path d="m14 33c-.0579-1.3706.0318-4.3499 2-7 3.0097-4.0524 8.4449-4.686 12-4 1.2881.2486 2.3112.6668 3 1" fill="none" stroke="#000" stroke-width="2"/><path d="m38.4282 41.0681-3.9848.3487-1.432-4.8939 5.9772-.5229z" fill="none" stroke="#000" stroke-width="2"/><path d="m35 20c.426-1.0177 1.5345-3.27 4-5 3.1271-2.1943 6.4318-2.0601 8-2 3.3939.13 5.8763 1.4067 7 2 1.3118.6926 2.3149 1.4347 3 2" fill="none" stroke="#000" stroke-width="2"/><path d="m32.1196 20.097c-1.2964-.8621-3.4264-2.0067-6.256-2.4212-1.2909-.1891-5.6496-.6543-9.8613 1.9381-1.2756.7852-2.1981 1.6419-2.7981 2.2738" fill="none" stroke="#000" stroke-width="2"/><path d="m44 11c-.7129-.3879-2.1404-1.036-4-1-.7209.0139-4.1718.1831-6 3-1.0579 1.63-1.0448 3.3162-1 4" fill="none" stroke="#000" stroke-width="2"/><path d="m35 23c.9188-.4244 2.7032-1.0984 5-1 3.876.1661 6.3812 2.4109 7 3 1.9421 1.8488 2.7013 3.9494 3 5" fill="none" stroke="#000" stroke-width="2"/><path d="m28.955 28.0291c-.123-.5023-.3779-1.2592-.9401-2.0289-.3279-.4488-.6751-.7854-.9699-1.0293" fill="none" stroke="#000" stroke-width="2"/><path d="m25.1464 28.8913c-.1875-.4818-.539-1.1991-1.1969-1.8887-.3836-.4022-.7718-.6906-1.0959-.8939" fill="none" stroke="#000" stroke-width="2"/><path d="m22.2254 30.8223c-.2152-.4702-.6079-1.1657-1.3048-1.816-.4064-.3791-.8107-.6444-1.146-.8286" fill="none" stroke="#000" stroke-width="2"/><path d="m20.1829 33.8604c-.2002-.4767-.5706-1.1844-1.2466-1.8563-.3942-.3919-.7899-.6698-1.1192-.8645" fill="none" stroke="#000" stroke-width="2"/><path d="m42.8452 19.4397c.0009-.5171.0699-1.3128.4345-2.1935.2126-.5135.4705-.9226.6993-1.2292" fill="none" stroke="#000" stroke-width="2"/><path d="m46.7497 19.3783c.0684-.5125.2406-1.2925.717-2.118.2779-.4814.587-.8533.8539-1.1274" fill="none" stroke="#000" stroke-width="2"/><path d="m50.044 20.5649c.0981-.5077.3154-1.2763.8391-2.0726.3054-.4644.6356-.8177.918-1.0758" fill="none" stroke="#000" stroke-width="2"/><path d="m52.7461 23.0349c.082-.5105.2749-1.2856.773-2.0982.2906-.4738.6094-.8374.8835-1.1043" fill="none" stroke="#000" stroke-width="2"/><path d="m37.9945 46.157h-4l-1-5h6z" fill="none" stroke="#000" stroke-width="2"/><path d="m39.0087 27.0625c.3036-.4185.8256-1.0231 1.637-1.5233.4731-.2917.9217-.4722 1.2868-.5866" fill="none" stroke="#000" stroke-width="2"/><path d="m42.2092 29.2998c.3557-.3753.9521-.9066 1.8218-1.2966.5071-.2274.9755-.3478 1.3524-.4136" fill="none" stroke="#000" stroke-width="2"/><path d="m44.1841 32.1912c.3769-.354 1.0033-.8496 1.8942-1.1884.5195-.1975.9941-.2904 1.3741-.3341" fill="none" stroke="#000" stroke-width="2"/></g></svg>